<mxfile host="65bd71144e">
    <diagram id="HaNeNk5g9suAjnec3D8f" name="Page-1">
        <mxGraphModel dx="1018" dy="681" grid="1" gridSize="10" guides="1" tooltips="1" connect="1" arrows="1" fold="1" page="1" pageScale="1" pageWidth="670" pageHeight="780" math="0" shadow="0">
            <root>
                <mxCell id="0"/>
                <mxCell id="1" parent="0"/>
                <mxCell id="5" value="" style="edgeStyle=none;html=1;" parent="1" source="2" target="4" edge="1">
                    <mxGeometry relative="1" as="geometry"/>
                </mxCell>
                <mxCell id="2" value="Начало" style="rounded=1;whiteSpace=wrap;html=1;arcSize=50;fillColor=#e51400;fontColor=#ffffff;strokeColor=#B20000;" parent="1" vertex="1">
                    <mxGeometry x="25" y="20" width="130" height="40" as="geometry"/>
                </mxCell>
                <mxCell id="3" value="Конец" style="rounded=1;whiteSpace=wrap;html=1;arcSize=50;fillColor=#e51400;fontColor=#ffffff;strokeColor=#B20000;" parent="1" vertex="1">
                    <mxGeometry x="10" y="950" width="135" height="40" as="geometry"/>
                </mxCell>
                <mxCell id="8" value="" style="edgeStyle=none;html=1;" parent="1" source="4" target="7" edge="1">
                    <mxGeometry relative="1" as="geometry"/>
                </mxCell>
                <mxCell id="4" value="N, D" style="shape=parallelogram;perimeter=parallelogramPerimeter;whiteSpace=wrap;html=1;fixedSize=1;fillColor=#0050ef;fontColor=#ffffff;strokeColor=#001DBC;" parent="1" vertex="1">
                    <mxGeometry x="35" y="90" width="110" height="40" as="geometry"/>
                </mxCell>
                <mxCell id="7" value="M=0&lt;br&gt;size = 2^N&lt;br&gt;mark[size]&amp;nbsp;&lt;br&gt;CodeBook[size]" style="rounded=0;whiteSpace=wrap;html=1;fillColor=#6a00ff;fontColor=#ffffff;strokeColor=#3700CC;" parent="1" vertex="1">
                    <mxGeometry x="15" y="150" width="145" height="60" as="geometry"/>
                </mxCell>
                <mxCell id="34" value="" style="edgeStyle=none;html=1;exitX=0.5;exitY=1;exitDx=0;exitDy=0;" parent="1" source="35" target="15" edge="1">
                    <mxGeometry relative="1" as="geometry">
                        <mxPoint x="302.5" y="239.38" as="sourcePoint"/>
                    </mxGeometry>
                </mxCell>
                <mxCell id="11" value="" style="endArrow=classic;html=1;exitX=1;exitY=1;exitDx=0;exitDy=0;entryX=0;entryY=0.5;entryDx=0;entryDy=0;" parent="1" source="7" target="35" edge="1">
                    <mxGeometry width="50" height="50" relative="1" as="geometry">
                        <mxPoint x="145" y="350" as="sourcePoint"/>
                        <mxPoint x="202.89473684210532" y="213.15789473684208" as="targetPoint"/>
                    </mxGeometry>
                </mxCell>
                <mxCell id="12" value="mark[zero] != 0 &lt;br&gt;&amp;amp;&amp;amp;&lt;br&gt;zero&amp;lt;size" style="rhombus;whiteSpace=wrap;html=1;fillColor=#fa6800;fontColor=#000000;strokeColor=#C73500;" parent="1" vertex="1">
                    <mxGeometry x="232.5" y="299.38" width="140" height="90" as="geometry"/>
                </mxCell>
                <mxCell id="16" value="" style="edgeStyle=none;html=1;" parent="1" source="15" target="12" edge="1">
                    <mxGeometry relative="1" as="geometry"/>
                </mxCell>
                <mxCell id="15" value="zero = 0" style="rounded=0;whiteSpace=wrap;html=1;fillColor=#0050ef;fontColor=#ffffff;strokeColor=#001DBC;" parent="1" vertex="1">
                    <mxGeometry x="227.5" y="259.38" width="150" height="20" as="geometry"/>
                </mxCell>
                <mxCell id="17" value="zero+=1" style="rounded=0;whiteSpace=wrap;html=1;fillColor=#0050ef;fontColor=#ffffff;strokeColor=#001DBC;" parent="1" vertex="1">
                    <mxGeometry x="412.5" y="334.38" width="110" height="20" as="geometry"/>
                </mxCell>
                <mxCell id="24" value="Да" style="endArrow=classic;html=1;exitX=1;exitY=0.5;exitDx=0;exitDy=0;entryX=0;entryY=0.5;entryDx=0;entryDy=0;" parent="1" source="12" target="17" edge="1">
                    <mxGeometry relative="1" as="geometry">
                        <mxPoint x="252.5" y="279.38" as="sourcePoint"/>
                        <mxPoint x="352.5" y="279.38" as="targetPoint"/>
                    </mxGeometry>
                </mxCell>
                <mxCell id="28" value="" style="edgeStyle=segmentEdgeStyle;endArrow=classic;html=1;entryX=0.5;entryY=0;entryDx=0;entryDy=0;exitX=1;exitY=0.5;exitDx=0;exitDy=0;" parent="1" source="17" target="12" edge="1">
                    <mxGeometry width="50" height="50" relative="1" as="geometry">
                        <mxPoint x="482.5" y="409.38" as="sourcePoint"/>
                        <mxPoint x="382.5" y="359.38" as="targetPoint"/>
                        <Array as="points">
                            <mxPoint x="542.5" y="344.38"/>
                            <mxPoint x="542.5" y="299.38"/>
                        </Array>
                    </mxGeometry>
                </mxCell>
                <mxCell id="33" value="Нет" style="edgeStyle=none;html=1;" parent="1" source="29" target="32" edge="1">
                    <mxGeometry relative="1" as="geometry"/>
                </mxCell>
                <mxCell id="29" value="zero&amp;gt;=size" style="rhombus;whiteSpace=wrap;html=1;fillColor=#fa6800;fontColor=#000000;strokeColor=#C73500;" parent="1" vertex="1">
                    <mxGeometry x="242.5" y="409.38" width="120" height="80" as="geometry"/>
                </mxCell>
                <mxCell id="30" value="Да" style="edgeStyle=segmentEdgeStyle;endArrow=classic;html=1;exitX=0;exitY=0.5;exitDx=0;exitDy=0;entryX=0.5;entryY=0;entryDx=0;entryDy=0;" parent="1" source="29" target="50" edge="1">
                    <mxGeometry width="50" height="50" relative="1" as="geometry">
                        <mxPoint x="170" y="470" as="sourcePoint"/>
                        <mxPoint x="78" y="820" as="targetPoint"/>
                    </mxGeometry>
                </mxCell>
                <mxCell id="31" value="Нет" style="endArrow=classic;html=1;exitX=0.5;exitY=1;exitDx=0;exitDy=0;entryX=0.5;entryY=0;entryDx=0;entryDy=0;" parent="1" source="12" target="29" edge="1">
                    <mxGeometry width="50" height="50" relative="1" as="geometry">
                        <mxPoint x="202.5" y="449.38" as="sourcePoint"/>
                        <mxPoint x="252.5" y="399.38" as="targetPoint"/>
                    </mxGeometry>
                </mxCell>
                <mxCell id="39" value="" style="edgeStyle=none;html=1;" parent="1" source="32" target="38" edge="1">
                    <mxGeometry relative="1" as="geometry"/>
                </mxCell>
                <mxCell id="32" value="CodeBook[M] = zero&lt;br&gt;mark[zero] = 2&lt;br&gt;M+=1;" style="rounded=0;whiteSpace=wrap;html=1;fillColor=#0050ef;fontColor=#ffffff;strokeColor=#001DBC;" parent="1" vertex="1">
                    <mxGeometry x="242.5" y="509.38" width="125" height="60" as="geometry"/>
                </mxCell>
                <mxCell id="35" value="while (1)" style="shape=loopLimit;whiteSpace=wrap;html=1;fillColor=#60a917;fontColor=#ffffff;strokeColor=#2D7600;" parent="1" vertex="1">
                    <mxGeometry x="222.5" y="199.38" width="160" height="30" as="geometry"/>
                </mxCell>
                <mxCell id="36" value="" style="shape=loopLimit;whiteSpace=wrap;html=1;rotation=-180;fillColor=#60a917;fontColor=#ffffff;strokeColor=#2D7600;" parent="1" vertex="1">
                    <mxGeometry x="227.5" y="880" width="160" height="30" as="geometry"/>
                </mxCell>
                <mxCell id="41" value="" style="edgeStyle=none;html=1;fontSize=11;entryX=0.5;entryY=0;entryDx=0;entryDy=0;" parent="1" source="38" target="40" edge="1">
                    <mxGeometry relative="1" as="geometry">
                        <mxPoint x="303.6821903787102" y="679.9992425793242" as="targetPoint"/>
                    </mxGeometry>
                </mxCell>
                <mxCell id="38" value="i:=0, size" style="shape=hexagon;perimeter=hexagonPerimeter2;whiteSpace=wrap;html=1;fixedSize=1;fillColor=#a20025;fontColor=#ffffff;strokeColor=#6F0000;" parent="1" vertex="1">
                    <mxGeometry x="237.5" y="589.38" width="135" height="60" as="geometry"/>
                </mxCell>
                <mxCell id="43" value="Да" style="edgeStyle=none;html=1;fontSize=11;" parent="1" source="40" target="42" edge="1">
                    <mxGeometry relative="1" as="geometry"/>
                </mxCell>
                <mxCell id="40" value="&lt;font style=&quot;font-size: 11px&quot;&gt;mark[i] == 0 &amp;amp;&amp;amp;&lt;br&gt;hamming(i, CodeBook[M - 1]) &amp;lt; D&lt;/font&gt;" style="rhombus;whiteSpace=wrap;html=1;fillColor=#fa6800;fontColor=#000000;strokeColor=#C73500;" parent="1" vertex="1">
                    <mxGeometry x="200" y="670" width="210" height="110" as="geometry"/>
                </mxCell>
                <mxCell id="42" value="mark[i] = 1" style="rounded=0;whiteSpace=wrap;html=1;fontSize=11;fillColor=#0050ef;fontColor=#ffffff;strokeColor=#001DBC;" parent="1" vertex="1">
                    <mxGeometry x="253.75" y="820" width="102.5" height="30" as="geometry"/>
                </mxCell>
                <mxCell id="44" value="" style="edgeStyle=elbowEdgeStyle;elbow=horizontal;endArrow=classic;html=1;fontSize=11;entryX=0;entryY=0.5;entryDx=0;entryDy=0;exitX=0;exitY=0.5;exitDx=0;exitDy=0;" parent="1" source="42" target="38" edge="1">
                    <mxGeometry width="50" height="50" relative="1" as="geometry">
                        <mxPoint x="290" y="840" as="sourcePoint"/>
                        <mxPoint x="400" y="670" as="targetPoint"/>
                        <Array as="points">
                            <mxPoint x="190" y="750"/>
                        </Array>
                    </mxGeometry>
                </mxCell>
                <mxCell id="46" value="" style="endArrow=classic;html=1;fontSize=11;exitX=0;exitY=0.5;exitDx=0;exitDy=0;" parent="1" source="40" edge="1">
                    <mxGeometry width="50" height="50" relative="1" as="geometry">
                        <mxPoint x="182.5" y="720" as="sourcePoint"/>
                        <mxPoint x="200.5" y="619" as="targetPoint"/>
                    </mxGeometry>
                </mxCell>
                <mxCell id="47" value="Нет" style="edgeLabel;html=1;align=center;verticalAlign=middle;resizable=0;points=[];fontSize=11;" parent="46" vertex="1" connectable="0">
                    <mxGeometry x="-0.3485" y="-2" relative="1" as="geometry">
                        <mxPoint as="offset"/>
                    </mxGeometry>
                </mxCell>
                <mxCell id="48" value="" style="edgeStyle=elbowEdgeStyle;elbow=horizontal;endArrow=classic;html=1;fontSize=11;exitX=1;exitY=0.5;exitDx=0;exitDy=0;entryX=0;entryY=1;entryDx=0;entryDy=0;" parent="1" source="38" target="36" edge="1">
                    <mxGeometry width="50" height="50" relative="1" as="geometry">
                        <mxPoint x="182.5" y="720" as="sourcePoint"/>
                        <mxPoint x="322.5" y="910" as="targetPoint"/>
                        <Array as="points">
                            <mxPoint x="442.5" y="760"/>
                        </Array>
                    </mxGeometry>
                </mxCell>
                <mxCell id="53" value="" style="edgeStyle=none;html=1;fontFamily=Helvetica;fontSize=11;" parent="1" source="50" target="52" edge="1">
                    <mxGeometry relative="1" as="geometry"/>
                </mxCell>
                <mxCell id="50" value="i:= 0, M" style="shape=hexagon;perimeter=hexagonPerimeter2;whiteSpace=wrap;html=1;fixedSize=1;fontSize=11;fillColor=#a20025;fontColor=#ffffff;strokeColor=#6F0000;" parent="1" vertex="1">
                    <mxGeometry x="16.25" y="790" width="122.5" height="50" as="geometry"/>
                </mxCell>
                <mxCell id="52" value="CodeBook[i]" style="shape=parallelogram;perimeter=parallelogramPerimeter;whiteSpace=wrap;html=1;fixedSize=1;fontFamily=Helvetica;fontSize=11;fillColor=#6a00ff;fontColor=#ffffff;strokeColor=#3700CC;" parent="1" vertex="1">
                    <mxGeometry x="26.880000000000003" y="860" width="101.25" height="35" as="geometry"/>
                </mxCell>
                <mxCell id="55" value="" style="edgeStyle=elbowEdgeStyle;elbow=horizontal;endArrow=classic;html=1;fontFamily=Helvetica;fontSize=11;exitX=0;exitY=0.5;exitDx=0;exitDy=0;entryX=0;entryY=0.5;entryDx=0;entryDy=0;" parent="1" source="52" target="50" edge="1">
                    <mxGeometry width="50" height="50" relative="1" as="geometry">
                        <mxPoint x="90" y="890" as="sourcePoint"/>
                        <mxPoint x="140" y="840" as="targetPoint"/>
                        <Array as="points">
                            <mxPoint x="16" y="840"/>
                        </Array>
                    </mxGeometry>
                </mxCell>
                <mxCell id="56" value="" style="edgeStyle=segmentEdgeStyle;endArrow=classic;html=1;fontFamily=Helvetica;fontSize=11;exitX=1;exitY=0.5;exitDx=0;exitDy=0;entryX=1;entryY=0.5;entryDx=0;entryDy=0;" parent="1" source="50" target="3" edge="1">
                    <mxGeometry width="50" height="50" relative="1" as="geometry">
                        <mxPoint x="90" y="890" as="sourcePoint"/>
                        <mxPoint x="120" y="960" as="targetPoint"/>
                        <Array as="points">
                            <mxPoint x="160" y="815"/>
                            <mxPoint x="160" y="970"/>
                        </Array>
                    </mxGeometry>
                </mxCell>
                <mxCell id="57" value="jmnbjbhnj" style="ellipse;whiteSpace=wrap;html=1;fillColor=#60a917;fontColor=#ffffff;strokeColor=#2D7600;" parent="1" vertex="1">
                    <mxGeometry x="387.5" y="50" width="120" height="80" as="geometry"/>
                </mxCell>
            </root>
        </mxGraphModel>
    </diagram>
    <diagram name="Copy of Page-1" id="UxySVwF4NNcMSL2zvGxg">
        <mxGraphModel dx="1198" dy="695" grid="1" gridSize="10" guides="1" tooltips="1" connect="1" arrows="1" fold="1" page="1" pageScale="1" pageWidth="670" pageHeight="780" math="0" shadow="0">
            <root>
                <mxCell id="VhvG6GQBfTD8F3A2vlXZ-0"/>
                <mxCell id="VhvG6GQBfTD8F3A2vlXZ-1" parent="VhvG6GQBfTD8F3A2vlXZ-0"/>
                <mxCell id="VhvG6GQBfTD8F3A2vlXZ-2" value="" style="edgeStyle=none;html=1;" edge="1" parent="VhvG6GQBfTD8F3A2vlXZ-1" source="VhvG6GQBfTD8F3A2vlXZ-3" target="VhvG6GQBfTD8F3A2vlXZ-6">
                    <mxGeometry relative="1" as="geometry"/>
                </mxCell>
                <mxCell id="VhvG6GQBfTD8F3A2vlXZ-3" value="Начало" style="rounded=1;whiteSpace=wrap;html=1;arcSize=50;fillColor=#e51400;fontColor=#ffffff;strokeColor=#B20000;" vertex="1" parent="VhvG6GQBfTD8F3A2vlXZ-1">
                    <mxGeometry x="25" y="20" width="130" height="40" as="geometry"/>
                </mxCell>
                <mxCell id="VhvG6GQBfTD8F3A2vlXZ-4" value="Конец" style="rounded=1;whiteSpace=wrap;html=1;arcSize=50;fillColor=#e51400;fontColor=#ffffff;strokeColor=#B20000;" vertex="1" parent="VhvG6GQBfTD8F3A2vlXZ-1">
                    <mxGeometry x="15" y="880" width="135" height="40" as="geometry"/>
                </mxCell>
                <mxCell id="VhvG6GQBfTD8F3A2vlXZ-5" value="" style="edgeStyle=none;html=1;" edge="1" parent="VhvG6GQBfTD8F3A2vlXZ-1" source="VhvG6GQBfTD8F3A2vlXZ-6" target="VhvG6GQBfTD8F3A2vlXZ-7">
                    <mxGeometry relative="1" as="geometry"/>
                </mxCell>
                <mxCell id="VhvG6GQBfTD8F3A2vlXZ-6" value="N, D" style="shape=parallelogram;perimeter=parallelogramPerimeter;whiteSpace=wrap;html=1;fixedSize=1;fillColor=#0050ef;fontColor=#ffffff;strokeColor=#001DBC;" vertex="1" parent="VhvG6GQBfTD8F3A2vlXZ-1">
                    <mxGeometry x="35" y="90" width="110" height="40" as="geometry"/>
                </mxCell>
                <mxCell id="VhvG6GQBfTD8F3A2vlXZ-7" value="M=0&lt;br&gt;size = 2^N&lt;br&gt;fl(size)&amp;nbsp;&lt;br&gt;CodeBook[size]" style="rounded=0;whiteSpace=wrap;html=1;fillColor=#6a00ff;fontColor=#ffffff;strokeColor=#3700CC;" vertex="1" parent="VhvG6GQBfTD8F3A2vlXZ-1">
                    <mxGeometry x="15" y="150" width="145" height="60" as="geometry"/>
                </mxCell>
                <mxCell id="VhvG6GQBfTD8F3A2vlXZ-8" value="" style="edgeStyle=none;html=1;exitX=0.5;exitY=1;exitDx=0;exitDy=0;entryX=0.5;entryY=0;entryDx=0;entryDy=0;" edge="1" parent="VhvG6GQBfTD8F3A2vlXZ-1" source="VhvG6GQBfTD8F3A2vlXZ-22" target="VhvG6GQBfTD8F3A2vlXZ-21">
                    <mxGeometry relative="1" as="geometry">
                        <mxPoint x="302.5" y="239.38" as="sourcePoint"/>
                        <mxPoint x="302.5" y="259.38" as="targetPoint"/>
                    </mxGeometry>
                </mxCell>
                <mxCell id="VhvG6GQBfTD8F3A2vlXZ-9" value="" style="endArrow=classic;html=1;exitX=1;exitY=1;exitDx=0;exitDy=0;entryX=0;entryY=0.5;entryDx=0;entryDy=0;" edge="1" parent="VhvG6GQBfTD8F3A2vlXZ-1" source="VhvG6GQBfTD8F3A2vlXZ-7" target="VhvG6GQBfTD8F3A2vlXZ-22">
                    <mxGeometry width="50" height="50" relative="1" as="geometry">
                        <mxPoint x="145" y="350" as="sourcePoint"/>
                        <mxPoint x="202.89473684210532" y="213.15789473684208" as="targetPoint"/>
                    </mxGeometry>
                </mxCell>
                <mxCell id="VhvG6GQBfTD8F3A2vlXZ-18" value="Да" style="edgeStyle=segmentEdgeStyle;endArrow=classic;html=1;exitX=1;exitY=0.75;exitDx=0;exitDy=0;entryX=0.5;entryY=0;entryDx=0;entryDy=0;" edge="1" parent="VhvG6GQBfTD8F3A2vlXZ-1" source="VhvG6GQBfTD8F3A2vlXZ-23" target="VhvG6GQBfTD8F3A2vlXZ-34">
                    <mxGeometry width="50" height="50" relative="1" as="geometry">
                        <mxPoint x="247.5" y="149.3800000000001" as="sourcePoint"/>
                        <mxPoint x="83" y="520" as="targetPoint"/>
                    </mxGeometry>
                </mxCell>
                <mxCell id="VhvG6GQBfTD8F3A2vlXZ-20" value="" style="edgeStyle=none;html=1;" edge="1" parent="VhvG6GQBfTD8F3A2vlXZ-1" source="VhvG6GQBfTD8F3A2vlXZ-21" target="VhvG6GQBfTD8F3A2vlXZ-25">
                    <mxGeometry relative="1" as="geometry"/>
                </mxCell>
                <mxCell id="VhvG6GQBfTD8F3A2vlXZ-21" value="&lt;div&gt;zero = fl.head-&amp;gt;x;&lt;/div&gt;&lt;div&gt;&amp;nbsp; CodeBook[M] = zero&lt;/div&gt;&lt;div&gt;&lt;span&gt;fl.rm_first();&lt;/span&gt;&lt;/div&gt;&lt;div&gt;&lt;span&gt;M++;&lt;/span&gt;&lt;/div&gt;" style="rounded=0;whiteSpace=wrap;html=1;fillColor=#0050ef;fontColor=#ffffff;strokeColor=#001DBC;" vertex="1" parent="VhvG6GQBfTD8F3A2vlXZ-1">
                    <mxGeometry x="252.5" y="260" width="125" height="90" as="geometry"/>
                </mxCell>
                <mxCell id="VhvG6GQBfTD8F3A2vlXZ-22" value="while (fl.size&amp;gt;0)" style="shape=loopLimit;whiteSpace=wrap;html=1;fillColor=#60a917;fontColor=#ffffff;strokeColor=#2D7600;" vertex="1" parent="VhvG6GQBfTD8F3A2vlXZ-1">
                    <mxGeometry x="235" y="199.38" width="160" height="30" as="geometry"/>
                </mxCell>
                <mxCell id="VhvG6GQBfTD8F3A2vlXZ-23" value="" style="shape=loopLimit;whiteSpace=wrap;html=1;rotation=-180;fillColor=#60a917;fontColor=#ffffff;strokeColor=#2D7600;" vertex="1" parent="VhvG6GQBfTD8F3A2vlXZ-1">
                    <mxGeometry x="232.5" y="700.62" width="160" height="30" as="geometry"/>
                </mxCell>
                <mxCell id="VhvG6GQBfTD8F3A2vlXZ-24" value="" style="edgeStyle=none;html=1;fontSize=11;entryX=0.5;entryY=0;entryDx=0;entryDy=0;" edge="1" parent="VhvG6GQBfTD8F3A2vlXZ-1" source="VhvG6GQBfTD8F3A2vlXZ-25" target="VhvG6GQBfTD8F3A2vlXZ-27">
                    <mxGeometry relative="1" as="geometry">
                        <mxPoint x="308.6821903787102" y="500.61924257932424" as="targetPoint"/>
                    </mxGeometry>
                </mxCell>
                <mxCell id="VhvG6GQBfTD8F3A2vlXZ-25" value="curNode:=&lt;br&gt;fl.getFirst, &lt;br&gt;NULL, &lt;br&gt;curNode=curNode.getNext" style="shape=hexagon;perimeter=hexagonPerimeter2;whiteSpace=wrap;html=1;fixedSize=1;fillColor=#a20025;fontColor=#ffffff;strokeColor=#6F0000;" vertex="1" parent="VhvG6GQBfTD8F3A2vlXZ-1">
                    <mxGeometry x="242.5" y="410" width="152.5" height="80.62" as="geometry"/>
                </mxCell>
                <mxCell id="VhvG6GQBfTD8F3A2vlXZ-26" value="Да" style="edgeStyle=none;html=1;fontSize=11;" edge="1" parent="VhvG6GQBfTD8F3A2vlXZ-1" source="VhvG6GQBfTD8F3A2vlXZ-27" target="VhvG6GQBfTD8F3A2vlXZ-28">
                    <mxGeometry relative="1" as="geometry"/>
                </mxCell>
                <mxCell id="VhvG6GQBfTD8F3A2vlXZ-27" value="&lt;font style=&quot;font-size: 11px&quot;&gt;hamming(curNode.x, CodeBook[M - 1]) &amp;lt; D&lt;/font&gt;" style="rhombus;whiteSpace=wrap;html=1;fillColor=#fa6800;fontColor=#000000;strokeColor=#C73500;" vertex="1" parent="VhvG6GQBfTD8F3A2vlXZ-1">
                    <mxGeometry x="205" y="490.62" width="220" height="119.38" as="geometry"/>
                </mxCell>
                <mxCell id="VhvG6GQBfTD8F3A2vlXZ-28" value="fl.rm_by_node(curNode);" style="rounded=0;whiteSpace=wrap;html=1;fontSize=11;fillColor=#0050ef;fontColor=#ffffff;strokeColor=#001DBC;" vertex="1" parent="VhvG6GQBfTD8F3A2vlXZ-1">
                    <mxGeometry x="252.5" y="640.62" width="126.25" height="30" as="geometry"/>
                </mxCell>
                <mxCell id="VhvG6GQBfTD8F3A2vlXZ-29" value="" style="edgeStyle=elbowEdgeStyle;elbow=horizontal;endArrow=classic;html=1;fontSize=11;entryX=0;entryY=0.5;entryDx=0;entryDy=0;exitX=0;exitY=0.5;exitDx=0;exitDy=0;" edge="1" parent="VhvG6GQBfTD8F3A2vlXZ-1" source="VhvG6GQBfTD8F3A2vlXZ-28" target="VhvG6GQBfTD8F3A2vlXZ-25">
                    <mxGeometry width="50" height="50" relative="1" as="geometry">
                        <mxPoint x="295" y="660.62" as="sourcePoint"/>
                        <mxPoint x="405" y="490.62" as="targetPoint"/>
                        <Array as="points">
                            <mxPoint x="195" y="570.62"/>
                        </Array>
                    </mxGeometry>
                </mxCell>
                <mxCell id="VhvG6GQBfTD8F3A2vlXZ-30" value="" style="endArrow=classic;html=1;fontSize=11;exitX=0;exitY=0.5;exitDx=0;exitDy=0;" edge="1" parent="VhvG6GQBfTD8F3A2vlXZ-1" source="VhvG6GQBfTD8F3A2vlXZ-27">
                    <mxGeometry width="50" height="50" relative="1" as="geometry">
                        <mxPoint x="187.5" y="540.62" as="sourcePoint"/>
                        <mxPoint x="206" y="450" as="targetPoint"/>
                    </mxGeometry>
                </mxCell>
                <mxCell id="VhvG6GQBfTD8F3A2vlXZ-31" value="Нет" style="edgeLabel;html=1;align=center;verticalAlign=middle;resizable=0;points=[];fontSize=11;" vertex="1" connectable="0" parent="VhvG6GQBfTD8F3A2vlXZ-30">
                    <mxGeometry x="-0.3485" y="-2" relative="1" as="geometry">
                        <mxPoint as="offset"/>
                    </mxGeometry>
                </mxCell>
                <mxCell id="VhvG6GQBfTD8F3A2vlXZ-32" value="" style="edgeStyle=elbowEdgeStyle;elbow=horizontal;endArrow=classic;html=1;fontSize=11;exitX=1;exitY=0.5;exitDx=0;exitDy=0;entryX=0;entryY=1;entryDx=0;entryDy=0;" edge="1" parent="VhvG6GQBfTD8F3A2vlXZ-1" source="VhvG6GQBfTD8F3A2vlXZ-25" target="VhvG6GQBfTD8F3A2vlXZ-23">
                    <mxGeometry width="50" height="50" relative="1" as="geometry">
                        <mxPoint x="187.5" y="540.62" as="sourcePoint"/>
                        <mxPoint x="327.5" y="730.6199999999999" as="targetPoint"/>
                        <Array as="points">
                            <mxPoint x="447.5" y="580.62"/>
                        </Array>
                    </mxGeometry>
                </mxCell>
                <mxCell id="VhvG6GQBfTD8F3A2vlXZ-33" value="" style="edgeStyle=none;html=1;fontFamily=Helvetica;fontSize=11;" edge="1" parent="VhvG6GQBfTD8F3A2vlXZ-1" source="VhvG6GQBfTD8F3A2vlXZ-34" target="VhvG6GQBfTD8F3A2vlXZ-35">
                    <mxGeometry relative="1" as="geometry"/>
                </mxCell>
                <mxCell id="VhvG6GQBfTD8F3A2vlXZ-34" value="i:= 0, M" style="shape=hexagon;perimeter=hexagonPerimeter2;whiteSpace=wrap;html=1;fixedSize=1;fontSize=11;fillColor=#a20025;fontColor=#ffffff;strokeColor=#6F0000;" vertex="1" parent="VhvG6GQBfTD8F3A2vlXZ-1">
                    <mxGeometry x="21.25" y="720" width="122.5" height="50" as="geometry"/>
                </mxCell>
                <mxCell id="VhvG6GQBfTD8F3A2vlXZ-35" value="CodeBook[i]" style="shape=parallelogram;perimeter=parallelogramPerimeter;whiteSpace=wrap;html=1;fixedSize=1;fontFamily=Helvetica;fontSize=11;fillColor=#6a00ff;fontColor=#ffffff;strokeColor=#3700CC;" vertex="1" parent="VhvG6GQBfTD8F3A2vlXZ-1">
                    <mxGeometry x="31.880000000000003" y="790" width="101.25" height="35" as="geometry"/>
                </mxCell>
                <mxCell id="VhvG6GQBfTD8F3A2vlXZ-36" value="" style="edgeStyle=elbowEdgeStyle;elbow=horizontal;endArrow=classic;html=1;fontFamily=Helvetica;fontSize=11;exitX=0;exitY=0.5;exitDx=0;exitDy=0;entryX=0;entryY=0.5;entryDx=0;entryDy=0;" edge="1" parent="VhvG6GQBfTD8F3A2vlXZ-1" source="VhvG6GQBfTD8F3A2vlXZ-35" target="VhvG6GQBfTD8F3A2vlXZ-34">
                    <mxGeometry width="50" height="50" relative="1" as="geometry">
                        <mxPoint x="95" y="820" as="sourcePoint"/>
                        <mxPoint x="145" y="770" as="targetPoint"/>
                        <Array as="points">
                            <mxPoint x="21" y="770"/>
                        </Array>
                    </mxGeometry>
                </mxCell>
                <mxCell id="VhvG6GQBfTD8F3A2vlXZ-37" value="" style="edgeStyle=segmentEdgeStyle;endArrow=classic;html=1;fontFamily=Helvetica;fontSize=11;exitX=1;exitY=0.5;exitDx=0;exitDy=0;entryX=1;entryY=0.5;entryDx=0;entryDy=0;" edge="1" parent="VhvG6GQBfTD8F3A2vlXZ-1" source="VhvG6GQBfTD8F3A2vlXZ-34" target="VhvG6GQBfTD8F3A2vlXZ-4">
                    <mxGeometry width="50" height="50" relative="1" as="geometry">
                        <mxPoint x="95" y="820" as="sourcePoint"/>
                        <mxPoint x="125" y="890" as="targetPoint"/>
                        <Array as="points">
                            <mxPoint x="165" y="745"/>
                            <mxPoint x="165" y="900"/>
                        </Array>
                    </mxGeometry>
                </mxCell>
            </root>
        </mxGraphModel>
    </diagram>
</mxfile>